v 0.05 0.0 0
v 0.04619397662556434 0.01913417161825449 0
v 0.03535533905932738 0.035355339059327376 0
v 0.019134171618254495 0.04619397662556434 0
v 3.061616997868383e-18 0.05 0
v -0.019134171618254488 0.04619397662556434 0
v -0.035355339059327376 0.03535533905932738 0
v -0.04619397662556434 0.019134171618254495 0
v -0.05 6.123233995736766e-18 0
v -0.04619397662556435 -0.019134171618254484 0
v -0.03535533905932738 -0.035355339059327376 0
v -0.01913417161825452 -0.04619397662556433 0
v -9.184850993605149e-18 -0.05 0
v 0.0191341716182545 -0.046193976625564334 0
v 0.03535533905932737 -0.03535533905932738 0
v 0.04619397662556433 -0.019134171618254522 0
v 0.05 0.0 1.0
v 0.04619397662556434 0.01913417161825449 1.0
v 0.03535533905932738 0.035355339059327376 1.0
v 0.019134171618254495 0.04619397662556434 1.0
v 3.061616997868383e-18 0.05 1.0
v -0.019134171618254488 0.04619397662556434 1.0
v -0.035355339059327376 0.03535533905932738 1.0
v -0.04619397662556434 0.019134171618254495 1.0
v -0.05 6.123233995736766e-18 1.0
v -0.04619397662556435 -0.019134171618254484 1.0
v -0.03535533905932738 -0.035355339059327376 1.0
v -0.01913417161825452 -0.04619397662556433 1.0
v -9.184850993605149e-18 -0.05 1.0
v 0.0191341716182545 -0.046193976625564334 1.0
v 0.03535533905932737 -0.03535533905932738 1.0
v 0.04619397662556433 -0.019134171618254522 1.0
f 1 2 18 17
f 2 3 19 18
f 3 4 20 19
f 4 5 21 20
f 5 6 22 21
f 6 7 23 22
f 7 8 24 23
f 8 9 25 24
f 9 10 26 25
f 10 11 27 26
f 11 12 28 27
f 12 13 29 28
f 13 14 30 29
f 14 15 31 30
f 15 16 32 31
f 16 1 17 32
v 0 0 0
f 33 1 2
f 33 2 3
f 33 3 4
f 33 4 5
f 33 5 6
f 33 6 7
f 33 7 8
f 33 8 9
f 33 9 10
f 33 10 11
f 33 11 12
f 33 12 13
f 33 13 14
f 33 14 15
f 33 15 16
f 33 16 1
v 0 0 1.0
f 34 17 18
f 34 18 19
f 34 19 20
f 34 20 21
f 34 21 22
f 34 22 23
f 34 23 24
f 34 24 25
f 34 25 26
f 34 26 27
f 34 27 28
f 34 28 29
f 34 29 30
f 34 30 31
f 34 31 32
f 34 32 17
